Coordinates
version=1
nRows=29
nColumns=24
inDegrees=yes

Units are S.I. units (second, meters, Newtons, ...)
Angles are in degrees.

endheader
time	pelvis_tilt	pelvis_list	pelvis_rotation	pelvis_tx	pelvis_ty	pelvis_tz	hip_flexion_r	hip_adduction_r	hip_rotation_r	knee_angle_r	ankle_angle_r	subtalar_angle_r	mtp_angle_r	hip_flexion_l	hip_adduction_l	hip_rotation_l	knee_angle_l	ankle_angle_l	subtalar_angle_l	mtp_angle_l	lumbar_extension	lumbar_bending	lumbar_rotation
      4.68000000	     -1.02431796	      7.66337435	     11.96328383	      0.75297379	      0.90624295	     -0.17740226	     29.93154206	    -11.55759152	    -19.99422676	    -12.46484918	      4.48188912	      1.46924039	      0.00000000	    -21.64771344	      6.86068325	     10.80757077	    -14.63761933	     13.69104367	     -1.61541228	      0.00000000	    -25.52049073	     -8.08584923	    -12.75516814
      4.69000000	     -0.91848615	      7.02254687	     11.67913681	      0.77014528	      0.90579392	     -0.17612239	     30.11196406	    -10.60366172	    -18.32323132	    -14.29580626	      3.03156436	     -0.91655786	      0.00000000	    -21.63928936	      6.00739562	      9.71179213	    -16.22365889	     12.14729387	     -0.59202220	      0.00000000	    -25.14015469	     -7.50369898	    -12.14585835
      4.70000000	     -0.83605435	      6.27455349	     11.20688866	      0.78744323	      0.90546366	     -0.17460399	     30.37449780	     -9.45439903	    -16.67116058	    -16.16151480	      1.50027872	     -3.13394320	      0.00000000	    -21.43567431	      5.11931807	      8.24941901	    -18.01670222	     10.35373824	      0.47307275	      0.00000000	    -24.67698167	     -6.86026513	    -11.33673057
      4.71000000	     -0.70749124	      5.44457797	     10.60852525	      0.80481320	      0.90539282	     -0.17292004	     30.58963377	     -8.15040952	    -15.07192400	    -18.04904133	      0.13188306	     -5.14597933	      0.00000000	    -21.12009628	      4.17405877	      6.61479219	    -20.00090137	      8.19798498	      1.51171779	      0.00000000	    -24.24328663	     -6.13859119	    -10.45460920
      4.72000000	     -0.53458272	      4.52740103	      9.92775634	      0.82221599	      0.90556195	     -0.17118612	     30.71579800	     -6.71551946	    -13.63746061	    -19.93560541	     -0.81934587	     -6.85897610	      0.00000000	    -20.67257869	      3.15412137	      4.88814091	    -22.20831117	      5.64567211	      2.40196533	      0.00000000	    -23.84629549	     -5.30066307	     -9.53841315
      4.73000000	     -0.30270249	      3.59744866	      9.20782491	      0.83945394	      0.90595792	     -0.16928458	     30.69708546	     -5.21546260	    -12.32190732	    -21.77039463	     -1.20785041	     -8.33626364	      0.00000000	    -20.07813746	      2.08703201	      3.10980724	    -24.69084040	      2.74980108	      3.20122745	      0.00000000	    -23.57032201	     -4.44558024	     -8.68751981
      4.74000000	     -0.08722230	      2.62273838	      8.51411413	      0.85646816	      0.90653415	     -0.16749087	     30.56512129	     -3.69186949	    -11.28643277	    -23.47160387	     -1.04015642	     -9.44257872	      0.00000000	    -19.24886787	      0.96405905	      1.48296326	    -27.43651969	     -0.52755344	      3.61315395	      0.00000000	    -23.32102105	     -3.49977703	     -7.90003208
      4.75000000	      0.06850088	      1.65961541	      7.90335437	      0.87314213	      0.90723644	     -0.16579766	     30.33185961	     -2.22432710	    -10.53039392	    -24.96236886	     -0.33647012	    -10.25488433	      0.00000000	    -18.12249316	     -0.17421752	      0.11274041	    -30.45252163	     -4.10175100	      3.59992830	      0.00000000	    -23.07080433	     -2.54109880	     -7.24733810
      4.76000000	      0.15603824	      0.71879658	      7.44277358	      0.88924633	      0.90810585	     -0.16434751	     29.99785188	     -0.87153851	    -10.08627297	    -26.18470990	      0.69375714	    -10.76640838	      0.00000000	    -16.64807403	     -1.31316111	     -0.87244562	    -33.76263852	     -7.86192838	      3.08694336	      0.00000000	    -22.85452947	     -1.54471795	     -6.78085017
      4.77000000	      0.05044089	     -0.13141958	      7.07867414	      0.90475350	      0.90889199	     -0.16297829	     29.72291459	      0.33131064	     -9.75342529	    -27.15391043	      1.96150644	    -11.08860328	      0.00000000	    -14.71096401	     -2.33891707	     -1.51187686	    -37.32166630	    -11.68651354	      2.00822229	      0.00000000	    -22.50759537	     -0.66707886	     -6.49056677
      4.78000000	     -0.17689212	     -0.96199333	      6.96170497	      0.91952803	      0.90974291	     -0.16203880	     29.43436372	      1.33972955	     -9.82427546	    -27.85196247	      3.34844629	    -11.06076741	      0.00000000	    -12.34591025	     -3.33877513	     -1.67247328	    -41.12744605	    -15.37856042	      0.47014230	      0.00000000	    -22.12881922	      0.27586908	     -6.47006029
      4.79000000	     -0.48373185	     -1.76294226	      6.96426390	      0.93375379	      0.91065601	     -0.16134317	     29.10210905	      2.22473726	    -10.14046096	    -28.27333686	      4.74587846	    -10.84123252	      0.00000000	     -9.69313965	     -4.25100917	     -1.51536231	    -45.01198898	    -18.84996676	     -1.46339547	      0.00000000	    -21.71399505	      1.20987333	     -6.53921726
      4.80000000	     -0.86169263	     -2.52765117	      7.06309006	      0.94744751	      0.91160447	     -0.16089472	     28.74518682	      2.98558397	    -10.66144368	    -28.46388895	      6.12038255	    -10.41245896	      0.00000000	     -6.80443969	     -5.04557648	     -1.11493521	    -48.89215601	    -21.88463089	     -3.67084716	      0.00000000	    -21.26759747	      2.12232721	     -6.65877643
      4.81000000	     -1.21173331	     -3.24383342	      7.18934007	      0.96074853	      0.91273006	     -0.16059115	     28.26750371	      3.66431215	    -11.30746082	    -28.44383096	      7.42246787	     -9.83703177	      0.00000000	     -3.86953552	     -5.71618003	     -0.61685105	    -52.63401590	    -24.29604774	     -5.98540090	      0.00000000	    -20.89083987	      2.97958249	     -6.77173930
      4.82000000	     -1.56802292	     -3.87550117	      7.24638206	      0.97368121	      0.91398552	     -0.16031975	     27.74874798	      4.25660780	    -11.99085189	    -28.30385254	      8.61659982	     -9.07357413	      0.00000000	     -0.91273026	     -6.22908314	     -0.16754860	    -56.16617758	    -25.87720311	     -8.19042645	      0.00000000	    -20.56062520	      3.71718204	     -6.77479877
      4.83000000	     -1.76071980	     -4.39754774	      7.23109518	      0.98654288	      0.91566939	     -0.15999023	     26.95775321	      4.81144347	    -12.56097794	    -27.99117740	      9.74155848	     -8.27494798	      0.00000000	      1.79076080	     -6.61627475	      0.15746986	    -59.34668554	    -26.53202539	    -10.19968049	      0.00000000	    -20.42523560	      4.30506192	     -6.68122986
      4.84000000	     -1.95068684	     -4.76173261	      7.05563647	      0.99921663	      0.91754851	     -0.15952250	     26.12872075	      5.27201896	    -12.96259297	    -27.63001096	     10.75007450	     -7.38802935	      0.00000000	      4.39824924	     -6.83226279	      0.26223863	    -62.18120323	    -26.20289672	    -11.79516672	      0.00000000	    -20.34839284	      4.65185048	     -6.39268386
      4.85000000	     -1.98367480	     -4.96102846	      6.75713552	      1.01181526	      0.91987440	     -0.15892517	     25.07281480	      5.65453760	    -13.16908557	    -27.18778072	     11.63752130	     -6.51264148	      0.00000000	      6.70974176	     -6.92602344	      0.13780094	    -64.60076042	    -24.97250245	    -12.91976214	      0.00000000	    -20.50049880	      4.76798583	     -5.92640363
      4.86000000	     -1.97048390	     -4.99966853	      6.28644619	      1.02441896	      0.92244928	     -0.15803738	     23.90650036	      5.99059044	    -13.02352147	    -26.66028093	     12.38213057	     -5.80227384	      0.00000000	      8.82703660	     -6.93161771	     -0.27851115	    -66.59775895	    -23.00950401	    -13.54656605	      0.00000000	    -20.72591147	      4.61853067	     -5.30082060
      4.87000000	     -1.94524795	     -4.90546849	      5.75427512	      1.03692301	      0.92519473	     -0.15707029	     22.67935560	      6.23155971	    -12.68309808	    -26.05742538	     13.01056049	     -5.19606706	      0.00000000	     10.83755822	     -6.85494412	     -0.84386292	    -68.20297947	    -20.54804784	    -13.70497819	      0.00000000	    -20.98876994	      4.27992945	     -4.60197856
      4.88000000	     -1.91850477	     -4.71128569	      5.15565922	      1.04936415	      0.92802266	     -0.15602034	     21.40556961	      6.40761906	    -12.14516108	    -25.37204743	     13.51631350	     -4.74613314	      0.00000000	     12.75371351	     -6.73304528	     -1.53798487	    -69.43413956	    -17.74667581	    -13.37314971	      0.00000000	    -21.25893530	      3.78568687	     -3.83551090
      4.89000000	     -1.89246642	     -4.45895970	      4.53028978	      1.06171986	      0.93087322	     -0.15493695	     20.08944898	      6.54257041	    -11.44055416	    -24.59194756	     13.88526013	     -4.46219775	      0.00000000	     14.59927551	     -6.59928055	     -2.30090067	    -70.31289283	    -14.81537231	    -12.66103441	      0.00000000	    -21.53168141	      3.20919678	     -3.06725450
      4.90000000	     -1.86953516	     -4.17186776	      3.90169241	      1.07399646	      0.93366902	     -0.15387591	     18.74225205	      6.63517094	    -10.66649589	    -23.72507024	     14.16880566	     -4.32128569	      0.00000000	     16.38511387	     -6.46013056	     -3.08543644	    -70.85676186	    -11.91444448	    -11.68122373	      0.00000000	    -21.79392360	      2.58404436	     -2.30936252
      4.91000000	     -1.85142651	     -3.88394083	      3.29971064	      1.08619411	      0.93635025	     -0.15290843	     17.37144172	      6.70368345	     -9.84334375	    -22.78068767	     14.37153373	     -4.28922572	      0.00000000	     18.12507705	     -6.33124180	     -3.84241039	    -71.08585002	     -9.14462620	    -10.55830794	      0.00000000	    -22.04199258	      1.97431157	     -1.60306253
      4.92000000	     -1.85669003	     -3.56790535	      2.75625365	      1.09833913	      0.93883806	     -0.15212054	     16.01042427	      6.68822063	     -9.09411618	    -21.79616280	     14.62865506	     -4.24262534	      0.00000000	     19.83594754	     -6.14913191	     -4.52075055	    -71.00066906	     -6.57494910	     -9.36802149	      0.00000000	    -22.24300045	      1.35982625	     -0.99273584
      4.93000000	     -1.85475114	     -3.30244240	      2.24980526	      1.11040880	      0.94115908	     -0.15146706	     14.63148203	      6.69774744	     -8.29944232	    -20.75899435	     14.70787953	     -4.34056746	      0.00000000	     21.47895056	     -6.00918729	     -5.13933980	    -70.60656844	     -4.15437085	     -8.23231206	      0.00000000	    -22.45019056	      0.84462457	     -0.47451240
      4.94000000	     -1.89621925	     -2.98372753	      1.86047831	      1.12246837	      0.94323210	     -0.15113200	     13.29751949	      6.57380252	     -7.66414764	    -19.71736667	     14.88134627	     -4.35058187	      0.00000000	     23.10111645	     -5.73182813	     -5.59904891	    -69.88040868	     -1.98330972	     -7.16312288	      0.00000000	    -22.58080718	      0.32395750	     -0.10943766
      4.95000000	     -1.87392217	     -2.78911166	      1.44037453	      1.13452028	      0.94508091	     -0.15070564	     11.88548181	      6.59287617	     -6.92283177	    -18.61961571	     14.90367378	     -4.60178686	      0.00000000	     24.57114911	     -5.62330399	     -6.06848344	    -68.86788414	      0.06881865	     -6.29317958	      0.00000000	    -22.77530557	     -0.05690507	      0.25833032
      4.96000000	     -1.93307603	     -2.56359069	      1.12331916	      1.14651457	      0.94657581	     -0.15064494	     10.60051859	      6.49322798	     -6.43751052	    -17.59089991	     15.04090872	     -4.65733464	      0.00000000	     26.04287527	     -5.39035315	     -6.38774106	    -67.51961751	      1.92020646	     -5.58965617	      0.00000000	    -22.86956494	     -0.40928892	      0.51111511
